<svg xmlns="http://www.w3.org/2000/svg" width="417.283" height="152.591" viewBox="0 0 417.283 152.591"><g id="Grupo_652" data-name="Grupo 652" transform="translate(-112 -40)"><g id="Grupo_5" data-name="Grupo 5" transform="translate(112 40)"><path id="Trazado_1" data-name="Trazado 1" d="M724.547,365.474v16.979a1.066,1.066,0,0,1-1.066,1.066H704.243a1.072,1.072,0,0,1-.707-1.874l19.229-16.969a1.07,1.07,0,0,1,1.781.8" transform="translate(-552.485 -286.669)"></path><path id="Trazado_2" data-name="Trazado 2" d="M32.532,257.943H49.952c.4,0-.671,5.987-1.066,5.987H32.532v61.295c3.057.395,5.316.8,8.375,1.066.266,0,0,2.791-.266,2.791H10.861c-.266,0,0-2.791.266-2.791l6.777-1.066c.138-4.26.266-8.375.138-14.233V263.93H8.73c-.266,0-.266-3.324,0-3.324l9.312-3.059v-4.922c0-18.347,13.029-26.722,27.391-26.722a35.909,35.909,0,0,1,8.5.927c.671.129.4,9.44,0,9.44h-.661c-2.664-3.057-6.382-5.317-10.505-5.317-5.584,0-10.239,3.986-10.239,13.03Z" transform="translate(-8.531 -178.216)"></path><path id="Trazado_3" data-name="Trazado 3" d="M222.959,425.3V392.2c0-1.2-.128-13.967-.128-14.894-2.269-.4-4-.661-6.916-.927-.4,0-.137-2.8.266-2.8H237.32v47.741c0,11.295,3.719,16.621,14.362,16.621a20.719,20.719,0,0,0,15.683-6.786V393c0-1.2-.129-14.767-.266-15.694a69.467,69.467,0,0,0-7.043-.927c-.266,0-.137-2.8.266-2.8h21.405V421.85c0,1.193.129,15.417.129,16.62,4.389.79,4.793,1.056,8.778,1.727.266,0,.266,2.654-.129,2.654-8.383,1.2-12.764,1.6-21.276,3.323-.266,0-1.064-.661-1.064-.927l-.129-10.1H267.5c-4.792,6.511-15.3,11.3-22.736,11.3-13.03,0-21.809-7.182-21.809-21.139" transform="translate(-170.77 -293.852)"></path><path id="Trazado_4" data-name="Trazado 4" d="M1020.376,338.639l6.777-1.066c.137-4.251.137-8.512.137-14.095V264.314c0-5.721-.137-7.474-.267-13.334a66.5,66.5,0,0,0-6.914-1.854c-.129,0-.266-2.4.137-2.4,9.441-2.259,11.966-2.92,19.937-5.05.137,0,1.2.661,1.2.927v37.126h.4c6.519-6.511,17.29-10.9,26.593-10.9,11.965,0,19.017,5.316,19.017,19.944v48.935c2.122.395,4.124.661,6.914.927.267,0,0,2.791-.266,2.791h-28.19c-.266,0,0-2.791.266-2.791l6.777-1.066c.137-4.655.137-8.512.137-14.095v-31.24c0-10.376-2.929-15.16-12.5-15.16-7.319,0-14.757,2.654-18.88,6.51v54.124c2.259.395,3.986.661,6.914.927.266,0,0,2.791-.266,2.791H1020.11c-.266,0,0-2.791.266-2.791" transform="translate(-800.564 -190.568)"></path><path id="Trazado_5" data-name="Trazado 5" d="M1417.642,440.721c-21.01,0-33.507-14.49-33.507-36.3,0-22.865,12.9-38.154,32.58-38.154,19.008,0,29.384,12.359,28.852,33.5h-47.208c.4,20.743,10.239,31.248,23.269,31.248,13.563,0,19.145-4.922,23.407-8.907.661-.671.8,1.6.395,2.654-3.057,6.391-12.764,15.959-27.787,15.959m-19.284-44.94,32.048-1.193c0-16.492-4.784-24.472-14.1-24.472s-17.152,7.851-17.952,25.666" transform="translate(-1085.723 -288.129)"></path><path id="Trazado_6" data-name="Trazado 6" d="M606.618,365.4c0-.266-1.451-.982-1.58-.982-8.117,2.122-10.377,2.791-19.816,5.05-.4.129-.267,2.525-.129,2.525a44.206,44.206,0,0,1,6.914,1.864c.129,5.85.266,11.3.266,17.016V419.6c0,5.584,0,9.973-.137,14.225l-6.777,1.065c-.266,0-.532,2.791-.266,2.791h29.513c.266,0,.533-2.791.266-2.791-2.791-.4-5.977-.671-8.246-1.065Z" transform="translate(-459.912 -286.683)"></path><path id="Trazado_7" data-name="Trazado 7" d="M868.938,364.817a22.926,22.926,0,0,1-11.7,3.72c-7.585,0-10.11-4.656-10.11-11.7V309.373h20.349c.661,0,1.459-5.987.8-5.987h-21.01c0-1.056.395-17.631.395-18.558,0-.671-2.388-1.2-2.92-.671-.725.8-5.729,5.133-11.01,9.541a1.928,1.928,0,0,0-.689,1.488V357.9c0,11.166,4.38,18.347,17.814,18.347,8.769,0,15.822-4.123,18.347-8.512.266-.532,0-3.057-.266-2.92" transform="translate(-654.18 -223.66)"></path><path id="Trazado_8" data-name="Trazado 8" d="M724.547,365.474v16.979a1.066,1.066,0,0,1-1.066,1.066H704.243a1.072,1.072,0,0,1-.707-1.874l19.229-16.969a1.07,1.07,0,0,1,1.781.8" transform="translate(-552.485 -286.669)"></path><path id="Trazado_9" data-name="Trazado 9" d="M606.618,365.4c0-.266-1.451-.982-1.58-.982-8.117,2.122-10.377,2.791-19.816,5.05-.4.129-.267,2.525-.129,2.525a44.206,44.206,0,0,1,6.914,1.864c.129,5.85.266,11.3.266,17.016V419.6c0,5.584,0,9.973-.137,14.225l-6.777,1.065c-.266,0-.532,2.791-.266,2.791h29.513c.266,0,.533-2.791.266-2.791-2.791-.4-5.977-.671-8.246-1.065Z" transform="translate(-459.912 -286.683)"></path><path id="Trazado_10" data-name="Trazado 10" d="M1835.852,365.474v16.979a1.067,1.067,0,0,1-1.066,1.066h-19.238a1.072,1.072,0,0,1-.707-1.874l19.229-16.969a1.07,1.07,0,0,1,1.781.8" transform="translate(-1422.712 -286.669)"></path><path id="Trazado_11" data-name="Trazado 11" d="M1717.926,365.4c0-.266-1.451-.982-1.58-.982-8.118,2.122-10.377,2.791-19.816,5.05-.4.129-.266,2.525-.128,2.525a44.2,44.2,0,0,1,6.914,1.864c.129,5.85.266,11.3.266,17.016V419.6c0,5.584,0,9.973-.137,14.225l-6.777,1.065c-.266,0-.532,2.791-.266,2.791h29.512c.267,0,.532-2.791.267-2.791-2.791-.4-5.978-.671-8.247-1.065Z" transform="translate(-1330.142 -286.683)"></path><g id="Grupo_3" data-name="Grupo 3" transform="translate(1.99 0)"><g id="Grupo_1" data-name="Grupo 1"><path id="Trazado_12" data-name="Trazado 12" d="M17.734,35.712h9.411A12.871,12.871,0,0,0,32.607,34.6a6.394,6.394,0,0,0,3.981-5.937c0-4.182-3.88-5.8-7.522-6.239v-.2c3.677-.843,5.7-3.27,5.7-6.071,0-3.608-3.1-5.733-8.4-5.733h-8.5a1.671,1.671,0,0,0-.034.811l2.26.268V29.237c0,1.451,0,4.048-.067,5.362L17.8,34.87a1.841,1.841,0,0,0-.067.843m6.308-1.08v-11.5c4.754-.034,8.6.776,8.6,5.767,0,3.507-1.889,5.733-5.7,5.733Zm0-12.714V11.462h1.147c3.675,0,5.935,1.317,5.935,5.3a4.807,4.807,0,0,1-2.056,4.216,5.668,5.668,0,0,1-3.272.946ZM55.069,32.1c.1-.271.067-.845-.1-.675a7.549,7.549,0,0,1-5.937,2.26c-3.3,0-5.8-2.664-5.9-7.926H55.1c.136-5.362-2.495-8.5-7.318-8.5-4.991,0-8.264,3.88-8.264,9.681,0,5.53,3.172,9.207,8.5,9.207A7.914,7.914,0,0,0,55.069,32.1M47.684,18.241c2.36,0,3.574,2.023,3.574,6.205l-8.127.3c.2-4.52,2.193-6.509,4.554-6.509M66.266,36.15a7.553,7.553,0,0,0,6.813-3.878c.067-.2-.067-.742-.134-.641a7.657,7.657,0,0,1-5.4,2.159c-3.576,0-6.037-2.834-6.037-7.826,0-4.958,2.631-7.486,5.834-7.486,2.025,0,3.205,1.044,4.723,2.293h.2a7.4,7.4,0,0,0,0-2.734,12.559,12.559,0,0,0-4.857-.74A9.43,9.43,0,0,0,58,27.18c0,5.329,3.44,8.97,8.262,8.97m13.83,0a5.948,5.948,0,0,0,5.329-3.136h.1c.033.033.033.505.067.539a2.674,2.674,0,0,0,2.968,2.6,3.886,3.886,0,0,0,2.832-1.08c.07-.067.034-.775-.033-.742a2.264,2.264,0,0,1-.91.17C89.47,34.5,89,34.262,89,32.811V22.053c0-3.811-2.968-4.79-7.083-4.79a15.036,15.036,0,0,0-5.429.979,10.12,10.12,0,0,0,0,2.664h.2a7.183,7.183,0,0,1,4.958-2.394c2.731,0,3.708.909,3.708,3.911v1.518c0,1.012-.673,1.484-1.685,1.922-1.755.776-3.744,1.35-4.687,1.688-1.889.606-3.51,1.619-3.51,4.216,0,3,2.025,4.383,4.623,4.383m1.618-1.788c-1.755,0-2.7-1.044-2.7-3.1a3.207,3.207,0,0,1,2.226-3.373c.572-.268,1.922-.673,2.865-1.077a3.322,3.322,0,0,0,1.247-.776V32a4.094,4.094,0,0,1-3.641,2.36m18.651,1.788a8.1,8.1,0,0,0,5.767-2.865h.134l.036,2.561c0,.069.2.237.268.237,2.159-.438,3.272-.539,5.4-.843.1,0,.1-.675.036-.675-1.013-.168-1.113-.237-2.227-.438,0-.3-.033-3.911-.033-4.216V17.667H104.31c-.1,0-.134.708-.067.708.742.07,1.247.137,1.788.237.033.237.067,3.677.067,3.979v9.681a5.256,5.256,0,0,1-3.979,1.719c-2.7,0-3.644-1.348-3.644-4.216V17.667H93.114c-.1,0-.17.708-.067.708.742.07,1.18.137,1.752.237,0,.237.034,3.474.034,3.778v8.4c0,3.54,2.226,5.362,5.532,5.362m19.46,0c3.272,0,6.542-1.652,6.542-5.666,0-2.968-2.7-4.283-5.429-5.633-2.36-1.18-3.677-1.652-3.677-3.741,0-1.721,1.417-2.7,3.272-2.7a5.244,5.244,0,0,1,4.654,2.631h.17a16.006,16.006,0,0,0,0-2.832,9.726,9.726,0,0,0-4.79-.946c-3.036,0-6.138,1.721-6.138,5.3,0,3.069,2.124,4.453,4.149,5.4,3.069,1.415,4.721,2.157,4.721,4.182,0,2.224-1.314,2.865-3.507,2.865-2.427,0-3.811-1.417-5.262-3.069H114.3A11.6,11.6,0,0,0,114.259,35a11.91,11.91,0,0,0,5.566,1.147M144.751,32.1c.1-.271.067-.845-.1-.675a7.544,7.544,0,0,1-5.935,2.26c-3.306,0-5.8-2.664-5.9-7.926h11.974c.134-5.362-2.5-8.5-7.321-8.5-4.991,0-8.261,3.88-8.261,9.681,0,5.53,3.17,9.207,8.5,9.207a7.919,7.919,0,0,0,7.05-4.046m-7.388-13.863c2.361,0,3.577,2.023,3.577,6.205l-8.13.3c.2-4.52,2.193-6.509,4.553-6.509m16.964,17.471h7.184a1.269,1.269,0,0,0,.067-.709c-.74-.067-1.281-.134-1.853-.234V12.745c0-.507.067-2.631.067-2.935,0-.067-.27-.237-.3-.237-1.722.508-2.868.742-5.128,1.317-.1.033-.067.606-.033.606a11.66,11.66,0,0,1,1.755.471c.034,1.484.067,2.868.067,4.319V31.159c0,1.417,0,2.5-.034,3.574L154.4,35a1.271,1.271,0,0,0-.069.709m9.748,0h7.151a1.291,1.291,0,0,0,.067-.709c-.743-.067-1.247-.134-1.822-.234V20.334c0-.541.067-2.667.067-2.935,0-.1-.268-.237-.3-.237-1.719.438-2.865.742-5.125,1.283-.1,0-.067.605-.034.605a17.655,17.655,0,0,1,1.755.472c.034,1.484.067,2.868.067,4.319v7.318c0,1.417,0,2.5-.033,3.574l-1.722.27a1.291,1.291,0,0,0-.067.709m3.574-20.978a2.058,2.058,0,1,0-2.09-2.059,2.075,2.075,0,0,0,2.09,2.059M201.225,32.1c.1-.271.067-.845-.1-.675a7.549,7.549,0,0,1-5.937,2.26c-3.3,0-5.8-2.664-5.9-7.926h11.972c.136-5.362-2.494-8.5-7.318-8.5-4.991,0-8.264,3.88-8.264,9.681,0,5.53,3.172,9.207,8.5,9.207a7.913,7.913,0,0,0,7.047-4.046M193.84,18.241c2.36,0,3.574,2.023,3.574,6.205l-8.127.3c.2-4.52,2.193-6.509,4.553-6.509" transform="translate(-17.706 -8.813)"></path><path id="Trazado_13" data-name="Trazado 13" d="M742.26,14.421H746.8a4.164,4.164,0,0,1-.278,1.561H742.26V31.961c.8.1,1.386.208,2.183.278a1.317,1.317,0,0,1-.069.728H736.61a1.314,1.314,0,0,1,.069-.728l1.767-.278c.036-1.11.069-2.183.036-3.71V15.982h-2.427a1.83,1.83,0,0,1,0-.866l2.427-.8V13.035c0-4.783,3.4-6.966,7.141-6.966a9.374,9.374,0,0,1,2.217.242,7.26,7.26,0,0,1,0,2.461h-.172a3.722,3.722,0,0,0-2.739-1.386c-1.456,0-2.669,1.039-2.669,3.4Z" transform="translate(-580.182 -6.069)"></path></g><g id="Grupo_2" data-name="Grupo 2" transform="translate(193.484 5.342)"><path id="Trazado_14" data-name="Trazado 14" d="M1010.351,34.386c0-.068-.37-.251-.4-.251-2.074.542-2.651.713-5.063,1.291-.1.033-.068.645-.033.645a11.309,11.309,0,0,1,1.767.476c.033,1.495.068,2.886.068,4.348v7.339c0,1.427,0,2.548-.035,3.635l-1.731.272a1.282,1.282,0,0,0-.068.713h7.541a1.291,1.291,0,0,0,.068-.713c-.714-.1-1.527-.171-2.107-.272Zm6.479.021v4.338a.272.272,0,0,1-.272.272h-4.915a.274.274,0,0,1-.181-.479l4.914-4.336a.273.273,0,0,1,.455.2M916.869,52.1a15.217,15.217,0,0,1-1.7-.239V38a6.6,6.6,0,0,1,4.527-1.634c2.419,0,3.065,1.192,3.065,3.847v8c0,1.431,0,2.417-.034,3.608l-1.7.273a1.276,1.276,0,0,0-.068.715h7.114c.068,0,.172-.715.068-.715-.679-.068-1.157-.135-1.735-.239V39.329c0-.442-.034-.887-.068-1.261a6.687,6.687,0,0,1,4.631-1.7c2.417,0,3.064,1.192,3.064,3.847v8c0,1.431,0,2.417-.034,3.608l-1.7.273a1.3,1.3,0,0,0-.068.715h7.151c.068,0,.169-.715.068-.715-.715-.068-1.192-.135-1.772-.239V39.329c0-3.814-1.566-5.109-4.63-5.109a10.126,10.126,0,0,0-6.774,2.794h-.138c-.544-2.044-2.008-2.794-4.357-2.794a9.806,9.806,0,0,0-6.641,2.794H915l.068-2.69c0-.07-.271-.239-.307-.239-2.076.51-2.654.715-5.073,1.293-.1,0-.068.614-.034.614a17.261,17.261,0,0,1,1.772.476c.034,1.5.068,2.9.068,4.36v7.388c0,1.431,0,2.518-.034,3.608l-1.738.273a1.3,1.3,0,0,0-.068.715h7.185c.034,0,.136-.715.034-.715m29.553,1.158a6,6,0,0,0,5.379-3.166h.1c.034.034.034.51.07.544a2.7,2.7,0,0,0,2.994,2.622,3.927,3.927,0,0,0,2.862-1.09c.068-.068.034-.783-.034-.749a2.359,2.359,0,0,1-.921.171c-.986,0-1.462-.239-1.462-1.7V39.022c0-3.847-3-4.835-7.151-4.835a15.157,15.157,0,0,0-5.481.988,10.024,10.024,0,0,0,0,2.69h.2a7.24,7.24,0,0,1,5-2.416c2.758,0,3.746.918,3.746,3.949v1.532c0,1.022-.681,1.5-1.7,1.941-1.772.783-3.78,1.36-4.735,1.7-1.907.614-3.54,1.636-3.54,4.256,0,3.031,2.042,4.427,4.664,4.427m1.633-1.806c-1.769,0-2.724-1.053-2.724-3.132a3.24,3.24,0,0,1,2.248-3.4c.58-.271,1.941-.682,2.9-1.09a3.307,3.307,0,0,0,1.259-.783v6.027a4.137,4.137,0,0,1-3.678,2.383M966.2,53.254a5.5,5.5,0,0,0,4.7-2.18c.068-.135,0-.783-.068-.749a5.871,5.871,0,0,1-3,.955c-1.941,0-2.589-1.192-2.589-3V36.127h5.211c.169,0,.374-1.532.2-1.532h-5.38c0-.271.1-3.439.1-3.676,0-.171-.614-.307-.749-.171-.34.374-4.393,3.813-5.754,4.8-.138.1-.07.577,0,.577h2.758V48.556c0,2.859,1.123,4.7,4.563,4.7m13.651,0a5.5,5.5,0,0,0,4.7-2.18c.07-.135,0-.783-.068-.749a5.854,5.854,0,0,1-3,.955c-1.941,0-2.586-1.192-2.586-3V36.127h5.208c.172,0,.375-1.532.205-1.532h-5.379c0-.271.1-3.439.1-3.676,0-.171-.614-.307-.749-.171-.341.374-4.391,3.813-5.754,4.8-.135.1-.068.577,0,.577h2.757V48.556c0,2.859,1.124,4.7,4.563,4.7m22.335-4.087c.1-.271.07-.851-.1-.679a7.617,7.617,0,0,1-5.993,2.281c-3.335,0-5.856-2.69-5.957-8h12.085c.138-5.413-2.518-8.581-7.388-8.581-5.039,0-8.342,3.917-8.342,9.773,0,5.583,3.2,9.295,8.581,9.295a7.986,7.986,0,0,0,7.115-4.087m-7.456-13.993c2.383,0,3.609,2.042,3.609,6.264l-8.2.307c.2-4.563,2.213-6.571,4.6-6.571m30.131,18.079c3.3,0,6.607-1.668,6.607-5.72,0-3-2.726-4.323-5.483-5.686-2.383-1.191-3.709-1.667-3.709-3.78,0-1.735,1.428-2.724,3.3-2.724a5.291,5.291,0,0,1,4.7,2.656h.172a16.147,16.147,0,0,0,0-2.859,9.82,9.82,0,0,0-4.836-.954c-3.064,0-6.2,1.737-6.2,5.345,0,3.1,2.146,4.495,4.188,5.447,3.1,1.431,4.766,2.18,4.766,4.222,0,2.247-1.327,2.9-3.541,2.9-2.45,0-3.847-1.431-5.312-3.1h-.237a11.727,11.727,0,0,0-.034,3.1,12.01,12.01,0,0,0,5.616,1.158m23.391-1.158a15.206,15.206,0,0,1-1.7-.239V38a6.6,6.6,0,0,1,4.526-1.634c2.419,0,3.064,1.192,3.064,3.847v8c0,1.431,0,2.417-.034,3.608l-1.7.273a1.3,1.3,0,0,0-.068.715h7.115c.067,0,.171-.715.067-.715-.679-.068-1.158-.135-1.735-.239V39.329c0-.442-.034-.887-.068-1.261a6.687,6.687,0,0,1,4.63-1.7c2.417,0,3.064,1.192,3.064,3.847v8c0,1.431,0,2.417-.034,3.608l-1.7.273a1.307,1.307,0,0,0-.067.715h7.151c.068,0,.169-.715.068-.715-.715-.068-1.191-.135-1.771-.239V39.329c0-3.814-1.566-5.109-4.631-5.109a10.127,10.127,0,0,0-6.774,2.794h-.138c-.544-2.044-2.008-2.794-4.357-2.794a9.794,9.794,0,0,0-6.638,2.794h-.138l.068-2.69c0-.07-.27-.239-.3-.239-2.078.51-2.656.715-5.075,1.293-.1,0-.068.614-.034.614a17.18,17.18,0,0,1,1.772.476c.034,1.5.068,2.9.068,4.36v7.388c0,1.431,0,2.518-.034,3.608l-1.738.273a1.3,1.3,0,0,0-.068.715h7.185c.034,0,.135-.715.034-.715m34.217,1.158c4.938,0,8.886-3.608,8.886-9.669,0-6.027-4.118-9.4-9.055-9.4-4.9,0-8.852,3.576-8.852,9.635s4.084,9.432,9.021,9.432m0-1.022c-3.131,0-5.174-2.076-5.174-8.613,0-6.2,2.042-8.41,5-8.41,3.132,0,5.174,2.042,5.174,8.579,0,6.232-2.042,8.444-5.005,8.444m17.127,1.022c3.3,0,6.6-1.668,6.6-5.72,0-3-2.723-4.323-5.481-5.686-2.383-1.191-3.712-1.667-3.712-3.78,0-1.735,1.431-2.724,3.3-2.724a5.3,5.3,0,0,1,4.7,2.656h.172a16.182,16.182,0,0,0,0-2.859,9.82,9.82,0,0,0-4.836-.954c-3.064,0-6.2,1.737-6.2,5.345,0,3.1,2.144,4.495,4.188,5.447,3.1,1.431,4.766,2.18,4.766,4.222,0,2.247-1.326,2.9-3.54,2.9-2.45,0-3.847-1.431-5.312-3.1h-.24a11.811,11.811,0,0,0-.034,3.1,12.027,12.027,0,0,0,5.619,1.158m15.628,0a5.506,5.506,0,0,0,4.7-2.18c.068-.135,0-.783-.067-.749a5.873,5.873,0,0,1-3,.955c-1.941,0-2.588-1.192-2.588-3V36.127h5.21c.169,0,.375-1.532.2-1.532h-5.379c0-.271.1-3.439.1-3.676,0-.171-.614-.307-.749-.171-.341.374-4.394,3.813-5.754,4.8-.138.1-.068.577,0,.577h2.757V48.556c0,2.859,1.124,4.7,4.562,4.7m10.01-.169a2.049,2.049,0,0,0,2.042-2.045,2.019,2.019,0,0,0-2.042-2.008,1.983,1.983,0,0,0-1.975,2.008,2.014,2.014,0,0,0,1.975,2.045" transform="translate(-909.616 -30.693)"></path></g></g><g id="Grupo_4" data-name="Grupo 4" transform="translate(400.93 134.542)"><path id="Trazado_15" data-name="Trazado 15" d="M1864.923,642.929a8.328,8.328,0,0,1,.086-16.655,7.985,7.985,0,0,1,8.059,8.252A8.237,8.237,0,0,1,1864.923,642.929Zm.086-15.125a6.817,6.817,0,0,0-.086,13.617c3.727,0,6.4-3.167,6.4-6.895A6.405,6.405,0,0,0,1865.009,627.8Zm1.9,10.708-2.671-4.051H1864v3.167l1.077.5v.388h-4.029v-.388l1.077-.5v-6.744l-1.077-.5V630h4.137c1.444,0,2.908.345,2.908,2.111a2.175,2.175,0,0,1-1.874,2.219l2.284,3.3,1.056.5v.388Zm-2.262-7.886H1864v3.318h.689c.884,0,1.379-.625,1.379-1.745C1866.065,631.251,1865.677,630.626,1864.643,630.626Z" transform="translate(-1856.714 -626.274)"></path></g></g></g></svg>